<svg width="383" height="46" viewBox="0 0 383 46" fill="none" xmlns="http://www.w3.org/2000/svg">
<path opacity="0.9" d="M4.97675 19.8477C4.08341 19.8477 3.25675 19.6744 2.49675 19.3277C1.75008 18.9677 1.13675 18.4677 0.656748 17.8277L2.13675 16.0477C2.91008 17.1144 3.83675 17.6477 4.91675 17.6477C6.37008 17.6477 7.09675 16.7877 7.09675 15.0677V7.8277H2.11675V5.6477H9.69675V14.9277C9.69675 16.5677 9.29675 17.801 8.49675 18.6277C7.69675 19.441 6.52341 19.8477 4.97675 19.8477ZM17.1836 8.8477C18.757 8.8477 19.957 9.2277 20.7836 9.9877C21.6236 10.7344 22.0436 11.8677 22.0436 13.3877V19.6477H19.6836V18.3477C19.377 18.8144 18.937 19.1744 18.3636 19.4277C17.8036 19.6677 17.1236 19.7877 16.3236 19.7877C15.5236 19.7877 14.8236 19.6544 14.2236 19.3877C13.6236 19.1077 13.157 18.7277 12.8236 18.2477C12.5036 17.7544 12.3436 17.201 12.3436 16.5877C12.3436 15.6277 12.697 14.861 13.4036 14.2877C14.1236 13.701 15.2503 13.4077 16.7836 13.4077H19.5436V13.2477C19.5436 12.501 19.317 11.9277 18.8636 11.5277C18.4236 11.1277 17.7636 10.9277 16.8836 10.9277C16.2836 10.9277 15.6903 11.021 15.1036 11.2077C14.5303 11.3944 14.0436 11.6544 13.6436 11.9877L12.6636 10.1677C13.2236 9.74104 13.897 9.41437 14.6836 9.18771C15.4703 8.96104 16.3036 8.8477 17.1836 8.8477ZM16.8436 17.9677C17.4703 17.9677 18.0236 17.8277 18.5036 17.5477C18.997 17.2544 19.3436 16.841 19.5436 16.3077V15.0677H16.9636C15.5236 15.0677 14.8036 15.541 14.8036 16.4877C14.8036 16.941 14.9836 17.301 15.3436 17.5677C15.7036 17.8344 16.2036 17.9677 16.8436 17.9677ZM35.0567 8.9677L30.0567 20.5077C29.5901 21.6677 29.0234 22.481 28.3567 22.9477C27.6901 23.4277 26.8834 23.6677 25.9367 23.6677C25.4034 23.6677 24.8767 23.581 24.3567 23.4077C23.8367 23.2344 23.4101 22.9944 23.0767 22.6877L24.0767 20.8477C24.3167 21.0744 24.5967 21.2544 24.9167 21.3877C25.2501 21.521 25.5834 21.5877 25.9167 21.5877C26.3567 21.5877 26.7167 21.4744 26.9967 21.2477C27.2901 21.021 27.5567 20.641 27.7967 20.1077L27.9767 19.6877L23.3167 8.9677H25.9167L29.2767 16.8677L32.6567 8.9677H35.0567ZM36.6192 4.8077H39.1192V19.6477H36.6192V4.8077ZM47.2005 19.7877C46.1205 19.7877 45.1472 19.5544 44.2805 19.0877C43.4138 18.621 42.7338 17.9744 42.2405 17.1477C41.7605 16.3077 41.5205 15.361 41.5205 14.3077C41.5205 13.2544 41.7605 12.3144 42.2405 11.4877C42.7338 10.661 43.4138 10.0144 44.2805 9.54771C45.1472 9.08104 46.1205 8.8477 47.2005 8.8477C48.2938 8.8477 49.2738 9.08104 50.1405 9.54771C51.0072 10.0144 51.6805 10.661 52.1605 11.4877C52.6538 12.3144 52.9005 13.2544 52.9005 14.3077C52.9005 15.361 52.6538 16.3077 52.1605 17.1477C51.6805 17.9744 51.0072 18.621 50.1405 19.0877C49.2738 19.5544 48.2938 19.7877 47.2005 19.7877ZM47.2005 17.6477C48.1205 17.6477 48.8805 17.341 49.4805 16.7277C50.0805 16.1144 50.3805 15.3077 50.3805 14.3077C50.3805 13.3077 50.0805 12.501 49.4805 11.8877C48.8805 11.2744 48.1205 10.9677 47.2005 10.9677C46.2805 10.9677 45.5205 11.2744 44.9205 11.8877C44.3338 12.501 44.0405 13.3077 44.0405 14.3077C44.0405 15.3077 44.3338 16.1144 44.9205 16.7277C45.5205 17.341 46.2805 17.6477 47.2005 17.6477ZM61.3511 8.8477C62.6978 8.8477 63.7778 9.24104 64.5911 10.0277C65.4045 10.8144 65.8111 11.981 65.8111 13.5277V19.6477H63.3111V13.8477C63.3111 12.9144 63.0911 12.2144 62.6511 11.7477C62.2111 11.2677 61.5845 11.0277 60.7711 11.0277C59.8511 11.0277 59.1245 11.3077 58.5911 11.8677C58.0578 12.4144 57.7911 13.2077 57.7911 14.2477V19.6477H55.2911V8.9677H57.6711V10.3477C58.0845 9.85437 58.6045 9.48104 59.2311 9.2277C59.8578 8.97437 60.5645 8.8477 61.3511 8.8477ZM87.5499 5.6477L81.4499 19.6477H78.8899L72.7699 5.6477H75.5899L80.2499 16.4477L84.9499 5.6477H87.5499ZM92.0664 8.8477C93.6398 8.8477 94.8398 9.2277 95.6664 9.9877C96.5064 10.7344 96.9264 11.8677 96.9264 13.3877V19.6477H94.5664V18.3477C94.2598 18.8144 93.8198 19.1744 93.2464 19.4277C92.6864 19.6677 92.0064 19.7877 91.2064 19.7877C90.4064 19.7877 89.7064 19.6544 89.1064 19.3877C88.5064 19.1077 88.0398 18.7277 87.7064 18.2477C87.3864 17.7544 87.2264 17.201 87.2264 16.5877C87.2264 15.6277 87.5798 14.861 88.2864 14.2877C89.0064 13.701 90.1331 13.4077 91.6664 13.4077H94.4264V13.2477C94.4264 12.501 94.1998 11.9277 93.7464 11.5277C93.3064 11.1277 92.6464 10.9277 91.7664 10.9277C91.1664 10.9277 90.5731 11.021 89.9864 11.2077C89.4131 11.3944 88.9264 11.6544 88.5264 11.9877L87.5464 10.1677C88.1064 9.74104 88.7798 9.41437 89.5664 9.18771C90.3531 8.96104 91.1864 8.8477 92.0664 8.8477ZM91.7264 17.9677C92.3531 17.9677 92.9064 17.8277 93.3864 17.5477C93.8798 17.2544 94.2264 16.841 94.4264 16.3077V15.0677H91.8464C90.4064 15.0677 89.6864 15.541 89.6864 16.4877C89.6864 16.941 89.8664 17.301 90.2264 17.5677C90.5864 17.8344 91.0864 17.9677 91.7264 17.9677ZM105.133 19.7877C104.026 19.7877 103.033 19.5544 102.153 19.0877C101.273 18.621 100.586 17.9744 100.093 17.1477C99.5992 16.3077 99.3525 15.361 99.3525 14.3077C99.3525 13.2544 99.5992 12.3144 100.093 11.4877C100.586 10.661 101.266 10.0144 102.133 9.54771C103.013 9.08104 104.013 8.8477 105.133 8.8477C106.186 8.8477 107.106 9.06104 107.893 9.4877C108.693 9.91437 109.293 10.5277 109.693 11.3277L107.773 12.4477C107.466 11.9544 107.079 11.5877 106.613 11.3477C106.159 11.0944 105.659 10.9677 105.113 10.9677C104.179 10.9677 103.406 11.2744 102.793 11.8877C102.179 12.4877 101.873 13.2944 101.873 14.3077C101.873 15.321 102.173 16.1344 102.773 16.7477C103.386 17.3477 104.166 17.6477 105.113 17.6477C105.659 17.6477 106.159 17.5277 106.613 17.2877C107.079 17.0344 107.466 16.661 107.773 16.1677L109.693 17.2877C109.279 18.0877 108.673 18.7077 107.873 19.1477C107.086 19.5744 106.173 19.7877 105.133 19.7877ZM116.597 19.7877C115.491 19.7877 114.497 19.5544 113.617 19.0877C112.737 18.621 112.051 17.9744 111.557 17.1477C111.064 16.3077 110.817 15.361 110.817 14.3077C110.817 13.2544 111.064 12.3144 111.557 11.4877C112.051 10.661 112.731 10.0144 113.597 9.54771C114.477 9.08104 115.477 8.8477 116.597 8.8477C117.651 8.8477 118.571 9.06104 119.357 9.4877C120.157 9.91437 120.757 10.5277 121.157 11.3277L119.237 12.4477C118.931 11.9544 118.544 11.5877 118.077 11.3477C117.624 11.0944 117.124 10.9677 116.577 10.9677C115.644 10.9677 114.871 11.2744 114.257 11.8877C113.644 12.4877 113.337 13.2944 113.337 14.3077C113.337 15.321 113.637 16.1344 114.237 16.7477C114.851 17.3477 115.631 17.6477 116.577 17.6477C117.124 17.6477 117.624 17.5277 118.077 17.2877C118.544 17.0344 118.931 16.661 119.237 16.1677L121.157 17.2877C120.744 18.0877 120.137 18.7077 119.337 19.1477C118.551 19.5744 117.637 19.7877 116.597 19.7877ZM127.398 8.8477C128.972 8.8477 130.172 9.2277 130.998 9.9877C131.838 10.7344 132.258 11.8677 132.258 13.3877V19.6477H129.898V18.3477C129.592 18.8144 129.152 19.1744 128.578 19.4277C128.018 19.6677 127.338 19.7877 126.538 19.7877C125.738 19.7877 125.038 19.6544 124.438 19.3877C123.838 19.1077 123.372 18.7277 123.038 18.2477C122.718 17.7544 122.558 17.201 122.558 16.5877C122.558 15.6277 122.912 14.861 123.618 14.2877C124.338 13.701 125.465 13.4077 126.998 13.4077H129.758V13.2477C129.758 12.501 129.532 11.9277 129.078 11.5277C128.638 11.1277 127.978 10.9277 127.098 10.9277C126.498 10.9277 125.905 11.021 125.318 11.2077C124.745 11.3944 124.258 11.6544 123.858 11.9877L122.878 10.1677C123.438 9.74104 124.112 9.41437 124.898 9.18771C125.685 8.96104 126.518 8.8477 127.398 8.8477ZM127.058 17.9677C127.685 17.9677 128.238 17.8277 128.718 17.5477C129.212 17.2544 129.558 16.841 129.758 16.3077V15.0677H127.178C125.738 15.0677 125.018 15.541 125.018 16.4877C125.018 16.941 125.198 17.301 125.558 17.5677C125.918 17.8344 126.418 17.9677 127.058 17.9677ZM137.847 10.5277C138.567 9.4077 139.834 8.8477 141.647 8.8477V11.2277C141.434 11.1877 141.24 11.1677 141.067 11.1677C140.094 11.1677 139.334 11.4544 138.787 12.0277C138.24 12.5877 137.967 13.401 137.967 14.4677V19.6477H135.467V8.9677H137.847V10.5277ZM148.47 19.7877C147.39 19.7877 146.417 19.5544 145.55 19.0877C144.683 18.621 144.003 17.9744 143.51 17.1477C143.03 16.3077 142.79 15.361 142.79 14.3077C142.79 13.2544 143.03 12.3144 143.51 11.4877C144.003 10.661 144.683 10.0144 145.55 9.54771C146.417 9.08104 147.39 8.8477 148.47 8.8477C149.563 8.8477 150.543 9.08104 151.41 9.54771C152.277 10.0144 152.95 10.661 153.43 11.4877C153.923 12.3144 154.17 13.2544 154.17 14.3077C154.17 15.361 153.923 16.3077 153.43 17.1477C152.95 17.9744 152.277 18.621 151.41 19.0877C150.543 19.5544 149.563 19.7877 148.47 19.7877ZM148.47 17.6477C149.39 17.6477 150.15 17.341 150.75 16.7277C151.35 16.1144 151.65 15.3077 151.65 14.3077C151.65 13.3077 151.35 12.501 150.75 11.8877C150.15 11.2744 149.39 10.9677 148.47 10.9677C147.55 10.9677 146.79 11.2744 146.19 11.8877C145.603 12.501 145.31 13.3077 145.31 14.3077C145.31 15.3077 145.603 16.1144 146.19 16.7277C146.79 17.341 147.55 17.6477 148.47 17.6477Z" fill="#011736"/>
<path d="M13.7227 37.1648L9.75547 36.5883L7.98204 32.993C7.9336 32.8945 7.85391 32.8148 7.75547 32.7664C7.5086 32.6445 7.2086 32.7461 7.08516 32.993L5.31172 36.5883L1.34454 37.1648C1.23516 37.1805 1.13516 37.232 1.0586 37.3102C0.966039 37.4053 0.915034 37.5333 0.916792 37.666C0.91855 37.7987 0.972927 37.9253 1.06797 38.018L3.93829 40.8164L3.26016 44.768C3.24426 44.8599 3.25443 44.9544 3.28952 45.0409C3.32462 45.1273 3.38323 45.2022 3.45871 45.257C3.53419 45.3118 3.62352 45.3444 3.71657 45.351C3.80962 45.3577 3.90267 45.3381 3.98516 45.2945L7.5336 43.4289L11.082 45.2945C11.1789 45.3461 11.2914 45.3633 11.3992 45.3445C11.6711 45.2977 11.8539 45.0399 11.807 44.768L11.1289 40.8164L13.9992 38.018C14.0773 37.9414 14.1289 37.8414 14.1445 37.732C14.1867 37.4586 13.9961 37.2055 13.7227 37.1648Z" fill="#FF9900"/>
<path d="M59.3394 37.1648L55.3722 36.5883L53.5987 32.993C53.5503 32.8945 53.4706 32.8148 53.3722 32.7664C53.1253 32.6445 52.8253 32.7461 52.7019 32.993L50.9284 36.5883L46.9612 37.1648C46.8519 37.1805 46.7519 37.232 46.6753 37.3102C46.5827 37.4053 46.5317 37.5333 46.5335 37.666C46.5352 37.7987 46.5896 37.9253 46.6847 38.018L49.555 40.8164L48.8769 44.768C48.861 44.8599 48.8711 44.9544 48.9062 45.0409C48.9413 45.1273 48.9999 45.2022 49.0754 45.257C49.1509 45.3118 49.2402 45.3444 49.3333 45.351C49.4263 45.3577 49.5194 45.3381 49.6019 45.2945L53.1503 43.4289L56.6987 45.2945C56.7956 45.3461 56.9081 45.3633 57.0159 45.3445C57.2878 45.2977 57.4706 45.0399 57.4237 44.768L56.7456 40.8164L59.6159 38.018C59.694 37.9414 59.7456 37.8414 59.7612 37.732C59.8034 37.4586 59.6128 37.2055 59.3394 37.1648Z" fill="#FF9900"/>
<path d="M36.3394 37.0977L32.3722 36.5211L30.5987 32.9258C30.5503 32.8274 30.4706 32.7477 30.3722 32.6993C30.1253 32.5774 29.8253 32.679 29.7019 32.9258L27.9284 36.5211L23.9612 37.0977C23.8519 37.1133 23.7519 37.1649 23.6753 37.243C23.5827 37.3382 23.5317 37.4661 23.5335 37.5989C23.5352 37.7316 23.5896 37.8582 23.6847 37.9508L26.555 40.7493L25.8769 44.7008C25.861 44.7928 25.8711 44.8873 25.9062 44.9737C25.9413 45.0602 25.9999 45.135 26.0754 45.1899C26.1509 45.2447 26.2402 45.2773 26.3333 45.2839C26.4263 45.2905 26.5194 45.271 26.6019 45.2274L30.1503 43.3618L33.6987 45.2274C33.7956 45.279 33.9081 45.2961 34.0159 45.2774C34.2878 45.2305 34.4706 44.9727 34.4237 44.7008L33.7456 40.7493L36.6159 37.9508C36.694 37.8743 36.7456 37.7743 36.7612 37.6649C36.8034 37.3915 36.6128 37.1383 36.3394 37.0977Z" fill="#FF9900"/>
<path d="M82.3394 37.0977L78.3722 36.5211L76.5987 32.9258C76.5503 32.8274 76.4706 32.7477 76.3722 32.6993C76.1253 32.5774 75.8253 32.679 75.7019 32.9258L73.9284 36.5211L69.9612 37.0977C69.8519 37.1133 69.7519 37.1649 69.6753 37.243C69.5827 37.3382 69.5317 37.4661 69.5335 37.5989C69.5352 37.7316 69.5896 37.8582 69.6847 37.9508L72.555 40.7493L71.8769 44.7008C71.861 44.7928 71.8711 44.8873 71.9062 44.9737C71.9413 45.0602 71.9999 45.135 72.0754 45.1899C72.1509 45.2447 72.2402 45.2773 72.3333 45.2839C72.4263 45.2905 72.5194 45.271 72.6019 45.2274L76.1503 43.3618L79.6987 45.2274C79.7956 45.279 79.9081 45.2961 80.0159 45.2774C80.2878 45.2305 80.4706 44.9727 80.4237 44.7008L79.7456 40.7493L82.6159 37.9508C82.694 37.8743 82.7456 37.7743 82.7612 37.6649C82.8034 37.3915 82.6128 37.1383 82.3394 37.0977Z" fill="#FF9900"/>
<path d="M105.339 37.0977L101.372 36.5211L99.5987 32.9258C99.5503 32.8274 99.4706 32.7477 99.3722 32.6993C99.1253 32.5774 98.8253 32.679 98.7019 32.9258L96.9284 36.5211L92.9612 37.0977C92.8519 37.1133 92.7519 37.1649 92.6753 37.243C92.5827 37.3382 92.5317 37.4661 92.5335 37.5989C92.5352 37.7316 92.5896 37.8582 92.6847 37.9508L95.555 40.7493L94.8769 44.7008C94.861 44.7928 94.8711 44.8873 94.9062 44.9737C94.9413 45.0602 94.9999 45.135 95.0754 45.1899C95.1509 45.2447 95.2402 45.2773 95.3333 45.2839C95.4263 45.2905 95.5194 45.271 95.6019 45.2274L99.1503 43.3618L102.699 45.2274C102.796 45.279 102.908 45.2961 103.016 45.2774C103.288 45.2305 103.471 44.9727 103.424 44.7008L102.746 40.7493L105.616 37.9508C105.694 37.8743 105.746 37.7743 105.761 37.6649C105.803 37.3915 105.613 37.1383 105.339 37.0977Z" fill="#FF9900"/>
</svg>
